<svg width="180" height="180" viewBox="0 0 180 180" fill="none" xmlns="http://www.w3.org/2000/svg">
<g clip-path="url(#clip0_6_4)">
<path d="M140 0H40C17.9086 0 0 17.9086 0 40V140C0 162.091 17.9086 180 40 180H140C162.091 180 180 162.091 180 140V40C180 17.9086 162.091 0 140 0Z" fill="#060C14"/>
<path opacity="0.15" d="M90 150C125.899 150 155 120.899 155 85C155 49.1015 125.899 20 90 20C54.1015 20 25 49.1015 25 85C25 120.899 54.1015 150 90 150Z" stroke="#4FC3F7" stroke-dasharray="4 6"/>
<path opacity="0.08" d="M90 130C114.853 130 135 109.853 135 85C135 60.1472 114.853 40 90 40C65.1472 40 45 60.1472 45 85C45 109.853 65.1472 130 90 130Z" stroke="#4FC3F7"/>
<path opacity="0.12" d="M90 15V155" stroke="#4FC3F7"/>
<path opacity="0.12" d="M20 85H160" stroke="#4FC3F7"/>
<path opacity="0.25" d="M140 4H40C20.1177 4 4 20.1177 4 40V140C4 159.882 20.1177 176 40 176H140C159.882 176 176 159.882 176 140V40C176 20.1177 159.882 4 140 4Z" stroke="#4FC3F7" stroke-width="2"/>
<path d="M24 44V24H44" stroke="#4FC3F7" stroke-width="3" stroke-linecap="round"/>
<path d="M156 126V156H126" stroke="#4FC3F7" stroke-width="3" stroke-linecap="round"/>
<path d="M144 42C147.314 42 150 39.3137 150 36C150 32.6863 147.314 30 144 30C140.686 30 138 32.6863 138 36C138 39.3137 140.686 42 144 42Z" fill="#E53935"/>
<path opacity="0.5" d="M144 46C149.523 46 154 41.5228 154 36C154 30.4772 149.523 26 144 26C138.477 26 134 30.4772 134 36C134 41.5228 138.477 46 144 46Z" stroke="#E53935" stroke-width="1.5"/>
<path opacity="0.25" d="M144 50C151.732 50 158 43.732 158 36C158 28.268 151.732 22 144 22C136.268 22 130 28.268 130 36C130 43.732 136.268 50 144 50Z" stroke="#E53935" stroke-width="0.75"/>
<path d="M78.6151 102.129L78.6443 87.2493H80.4497L94.7764 70.2727H109.016L89.7678 92.7528H86.8268L78.6151 102.129ZM67.3751 115V55.3636H79.7799V115H67.3751ZM95.3296 115L82.1677 95.5192L90.4376 86.7543L109.86 115H95.3296Z" fill="#4FC3F7"/>
<path d="M122.352 115.757C120.43 115.757 118.78 115.078 117.402 113.719C116.043 112.34 115.364 110.69 115.364 108.768C115.364 106.866 116.043 105.235 117.402 103.876C118.78 102.518 120.43 101.838 122.352 101.838C124.216 101.838 125.847 102.518 127.244 103.876C128.642 105.235 129.341 106.866 129.341 108.768C129.341 110.05 129.011 111.224 128.351 112.292C127.71 113.34 126.866 114.185 125.818 114.825C124.769 115.446 123.614 115.757 122.352 115.757Z" fill="#E53935"/>
</g>
<defs>
<clipPath id="clip0_6_4">
<rect width="180" height="180" fill="white"/>
</clipPath>
</defs>
</svg>
